<svg width="16" height="16" viewBox="0 0 16 16" fill="none" xmlns="http://www.w3.org/2000/svg">
<path fill-rule="evenodd" clip-rule="evenodd" d="M0.206518 13.1053L3.35375 5.28121L4.21474 6.12882L6.26344 0L7.5401 2.80371L8.0152 2.08645L9.85598 6.3897L11.1624 3.52081L14.8143 13.1053L11.296 4.95533L10.7615 8.37829L11.2514 11.0842L8.10423 3.09708L8.07015 5.82227L9.85598 13.1053L6.51575 1.82558L7.48074 7.9219L6.12985 1.9886L5.38757 5.9333L5.53596 3.35778L3.68029 12.6489L3.90292 8.73684L3.131 7.17214L0.206518 13.1053Z" fill="#011C40"/>
<path fill-rule="evenodd" clip-rule="evenodd" d="M15.8723 14.329C10.8894 6.91707 3.1335 17.1069 0 13.1773C3.4451 18.7459 11.4976 9.33237 15.8723 14.329Z" fill="#011C40"/>
<path fill-rule="evenodd" clip-rule="evenodd" d="M16 14.9119C12.0904 10.323 6.27584 16.709 3.29575 15.2302C6.52495 18.1172 12.5367 11.7204 16 14.9119Z" fill="#011C40"/>
</svg>
